<svg width="11" height="16" viewBox="0 0 11 16" fill="none" xmlns="http://www.w3.org/2000/svg">
<path d="M11 3.978V10.478C11 13.6968 8.25 16.2593 4.96875 15.978C2.125 15.728 0 13.1968 0 10.3218V6.728C0 6.32175 0.3125 5.978 0.75 5.978C1.15625 5.978 1.5 6.32175 1.5 6.728V10.3218C1.5 12.4155 3.15625 14.353 5.21875 14.478C7.5625 14.6343 9.5 12.7905 9.5 10.478V4.13425C9.5 2.82175 8.53125 1.63425 7.21875 1.50925C5.71875 1.38425 4.5 2.5405 4.5 3.978V10.478C4.5 11.103 5.03125 11.5718 5.65625 11.478C6.15625 11.3843 6.5 10.9468 6.5 10.4468V4.728C6.5 4.32175 6.8125 3.978 7.25 3.978C7.65625 3.978 8 4.32175 8 4.728V10.353C8 11.6655 7.03125 12.853 5.71875 12.978C4.21875 13.103 3 11.9468 3 10.478V4.1655C3 2.07175 4.65625 0.134251 6.71875 0.0092506C9.0625 -0.146999 11 1.69675 11 3.978Z" fill="white"/>
</svg>
