<svg width="12" height="16" viewBox="0 0 12 16" fill="none" xmlns="http://www.w3.org/2000/svg">
<path d="M0 3C0 1.34375 1.3125 0 2.96875 0H8.125C9.78125 0 11.0938 1.34375 11.0938 3C11.0938 4.0625 10.5625 4.96875 9.75 5.5C10.5625 6.0625 11.0938 6.96875 11.0938 8.03125C11.0938 9.65625 9.78125 11 8.125 11H8.0625C7.28125 11 6.5625 10.7188 6.03125 10.2188V13C6.03125 14.6562 4.65625 16 3 16C1.34375 16 0 14.6875 0 13.0312C0 11.9688 0.53125 11.0625 1.34375 10.5312C0.53125 9.96875 0 9.0625 0 8.03125C0 6.96875 0.53125 6.0625 1.34375 5.5C0.53125 4.96875 0 4.0625 0 3ZM5.0625 6H2.96875C1.875 6 0.96875 6.90625 0.96875 8.03125C0.96875 9.125 1.84375 10.0312 2.96875 10.0312H5.0625V6ZM6.03125 8.03125C6.03125 9.125 6.9375 10.0312 8.0625 10.0312H8.125C9.21875 10.0312 10.125 9.125 10.125 8.03125C10.125 6.90625 9.21875 6 8.125 6H8.0625C6.9375 6 6.03125 6.90625 6.03125 8.03125ZM2.96875 11C1.84375 11.0312 0.96875 11.9062 0.96875 13.0312C0.96875 14.125 1.875 15.0312 3 15.0312C4.125 15.0312 5.0625 14.125 5.0625 13V11H2.96875ZM2.96875 1C1.875 1 0.96875 1.90625 0.96875 3C0.96875 4.125 1.875 5.03125 2.96875 5.03125H5.0625V1H2.96875ZM6.03125 5.03125H8.125C9.21875 5.03125 10.125 4.125 10.125 3C10.125 1.90625 9.21875 1 8.125 1H6.03125V5.03125Z" fill="white"/>
</svg>
