<svg width="12" height="16" viewBox="0 0 12 16" fill="none" xmlns="http://www.w3.org/2000/svg">
<path d="M11.4062 2.9375C11.7812 3.3125 12 3.8125 12 4.34375V14C12 15.125 11.0938 16 10 16H2C0.875 16 0 15.125 0 14V2C0 0.90625 0.875 0 2 0H7.65625C8.1875 0 8.6875 0.21875 9.0625 0.59375L11.4062 2.9375ZM10.5 14V5H8C7.4375 5 7 4.5625 7 4V1.53125H2C1.71875 1.53125 1.5 1.75 1.5 2.03125V14C1.5 14.2812 1.71875 14.5 2 14.5H10C10.25 14.5 10.5 14.2812 10.5 14ZM6.3125 8.96875C6.5 9.34375 6.75 9.65625 7.0625 9.96875C7.84375 9.8125 8.40625 9.78125 8.5 9.78125H8.59375C9.25 9.78125 9.75 10.3125 9.75 10.9375C9.75 11.5938 9.25 12.0938 8.625 12.0938C8.46875 12.0938 8.3125 12.0625 8.1875 12.0312C7.65625 11.8438 7.15625 11.5938 6.75 11.3125C6.125 11.4375 5.5625 11.5938 5.0625 11.8125C4.6875 12.5 4.34375 13 4.125 13.3438C3.90625 13.5938 3.59375 13.75 3.25 13.75C2.6875 13.75 2.21875 13.2812 2.21875 12.7188C2.21875 12.4062 2.3125 12.1562 2.5 11.9375C2.9375 11.5 3.5 11.125 4.15625 10.8125C4.46875 10.2188 4.71875 9.625 4.9375 9C4.53125 7.96875 4.53125 7.0625 4.53125 7.0625C4.53125 6.5 5 6 5.5625 6C6.15625 6 6.625 6.5 6.625 7.0625C6.625 7.71875 6.4375 8.53125 6.375 8.6875C6.34375 8.78125 6.3125 8.875 6.3125 8.96875ZM3.4375 12.8438C3.5625 12.6562 3.8125 12.3125 4.09375 11.7812C3.71875 12 3.375 12.25 3.09375 12.5312C3.0625 12.5625 3.0625 12.625 3.0625 12.6875C3.0625 12.9375 3.3125 13 3.4375 12.8438ZM5.5625 6.84375C5.4375 6.84375 5.34375 6.9375 5.34375 7.0625C5.34375 7.125 5.375 7.6875 5.59375 8.375C5.65625 8.15625 5.78125 7.53125 5.78125 7.0625C5.78125 6.9375 5.6875 6.84375 5.5625 6.84375ZM5.0625 10.9062C5.53125 10.7188 6 10.5938 6.4375 10.5C6.125 10.1875 5.875 9.84375 5.65625 9.5C5.46875 10 5.25 10.4688 5.0625 10.9062ZM8.5 10.625C8.5 10.625 8.0625 10.6562 7.4375 10.75C7.71875 10.9375 8.0625 11.0938 8.4375 11.2188C8.5 11.25 8.5625 11.25 8.625 11.25C8.78125 11.25 8.90625 11.125 8.90625 10.9688C8.90625 10.75 8.78125 10.625 8.59375 10.625H8.5Z" fill="white"/>
</svg>
