<svg width="12" height="16" viewBox="0 0 12 16" fill="none" xmlns="http://www.w3.org/2000/svg">
<path d="M11.4062 2.9375C11.7812 3.3125 12 3.8125 12 4.34375V14C12 15.125 11.0938 16 10 16H2C0.875 16 0 15.125 0 14V2C0 0.90625 0.875 0 2 0H7.65625C8.1875 0 8.6875 0.21875 9.0625 0.59375L11.4062 2.9375ZM10.5 14V5H8C7.4375 5 7 4.5625 7 4V1.53125H5.5V2H3.5V1.53125H2C1.71875 1.53125 1.5 1.75 1.5 2.03125V14C1.5 14.2812 1.71875 14.5 2 14.5H10C10.25 14.5 10.5 14.2812 10.5 14ZM5.5 3V4H3.5V3H5.5ZM5.5 5V6H3.5V5H5.5ZM5.5 7L6.4375 10.6562C6.6875 11.875 5.75 13 4.5 13C3.21875 13 2.28125 11.875 2.53125 10.6562L3.5 7H5.5ZM5 11.5C5.25 11.5 5.5 11.2812 5.5 11C5.5 10.75 5.25 10.5 5 10.5H4C3.71875 10.5 3.5 10.75 3.5 11C3.5 11.2812 3.71875 11.5 4 11.5H5Z" fill="white"/>
</svg>
