<svg width="18" height="12" viewBox="0 0 18 12" fill="none" xmlns="http://www.w3.org/2000/svg">
<mask id="path-1-outside-1_73_29" maskUnits="userSpaceOnUse" x="0" y="0" width="18" height="12" fill="black">
<rect fill="white" width="18" height="12"/>
<path d="M16 11H2V10H1V2H2V1H16V2H17V10H16V11Z"/>
</mask>
<path d="M16 11H2V10H1V2H2V1H16V2H17V10H16V11Z" fill="url(#paint0_linear_73_29)"/>
<path d="M16 11V12H17V11H16ZM2 11H1V12H2V11ZM2 10H3V9H2V10ZM1 10H0V11H1V10ZM1 2V1H0V2H1ZM2 2V3H3V2H2ZM2 1V0H1V1H2ZM16 1H17V0H16V1ZM16 2H15V3H16V2ZM17 2H18V1H17V2ZM17 10V11H18V10H17ZM16 10V9H15V10H16ZM16 11V10H2V11V12H16V11ZM2 11H3V10H2H1V11H2ZM2 10V9H1V10V11H2V10ZM1 10H2V2H1H0V10H1ZM1 2V3H2V2V1H1V2ZM2 2H3V1H2H1V2H2ZM2 1V2H16V1V0H2V1ZM16 1H15V2H16H17V1H16ZM16 2V3H17V2V1H16V2ZM17 2H16V10H17H18V2H17ZM17 10V9H16V10V11H17V10ZM16 10H15V11H16H17V10H16Z" fill="black" mask="url(#path-1-outside-1_73_29)"/>
<defs>
<linearGradient id="paint0_linear_73_29" x1="9" y1="1.5" x2="9" y2="10.5" gradientUnits="userSpaceOnUse">
<stop stop-color="#CC3935"/>
<stop offset="0.2" stop-color="#F5971C"/>
<stop offset="0.4" stop-color="#FCD722"/>
<stop offset="0.6" stop-color="#14E47D"/>
<stop offset="0.8" stop-color="#1D8BFD"/>
<stop offset="1" stop-color="#776EDC"/>
</linearGradient>
</defs>
</svg>
