<svg width="7" height="7" viewBox="0 0 7 7" fill="none" xmlns="http://www.w3.org/2000/svg">
<rect x="2" y="2" width="1" height="1" fill="white"/>
<rect x="1" y="1" width="1" height="1" fill="white"/>
<rect x="2" y="4" width="1" height="1" fill="white"/>
<rect x="1" y="5" width="1" height="1" fill="white"/>
<rect x="5" y="3" width="1" height="1" fill="white"/>
<rect x="6" y="3" width="1" height="1" fill="white"/>
<rect x="3" y="1" width="1" height="1" fill="white"/>
<rect x="3" width="1" height="1" fill="white"/>
<rect x="3" y="5" width="1" height="1" fill="white"/>
<rect x="3" y="6" width="1" height="1" fill="white"/>
<rect x="1" y="3" width="1" height="1" fill="white"/>
<rect y="3" width="1" height="1" fill="white"/>
<rect x="2" y="3" width="1" height="1" fill="white"/>
<rect x="4" y="2" width="1" height="1" fill="white"/>
<rect x="5" y="1" width="1" height="1" fill="white"/>
<rect x="3" y="4" width="1" height="1" fill="white"/>
<rect x="3" y="3" width="1" height="1" fill="white"/>
<rect x="4" y="4" width="1" height="1" fill="white"/>
<rect x="5" y="5" width="1" height="1" fill="white"/>
<rect x="4" y="3" width="1" height="1" fill="white"/>
<rect x="3" y="2" width="1" height="1" fill="white"/>
</svg>
