<svg width="18" height="12" viewBox="0 0 18 12" fill="none" xmlns="http://www.w3.org/2000/svg">
<mask id="path-1-outside-1_73_28" maskUnits="userSpaceOnUse" x="0" y="0" width="18" height="12" fill="black">
<rect fill="white" width="18" height="12"/>
<path d="M16 11H2V10H1V2H2V1H16V2H17V10H16V11Z"/>
</mask>
<path d="M16 11V12H17V11H16ZM2 11H1V12H2V11ZM2 10H3V9H2V10ZM1 10H0V11H1V10ZM1 2V1H0V2H1ZM2 2V3H3V2H2ZM2 1V0H1V1H2ZM16 1H17V0H16V1ZM16 2H15V3H16V2ZM17 2H18V1H17V2ZM17 10V11H18V10H17ZM16 10V9H15V10H16ZM16 11V10H2V11V12H16V11ZM2 11H3V10H2H1V11H2ZM2 10V9H1V10V11H2V10ZM1 10H2V2H1H0V10H1ZM1 2V3H2V2V1H1V2ZM2 2H3V1H2H1V2H2ZM2 1V2H16V1V0H2V1ZM16 1H15V2H16H17V1H16ZM16 2V3H17V2V1H16V2ZM17 2H16V10H17H18V2H17ZM17 10V9H16V10V11H17V10ZM16 10H15V11H16H17V10H16Z" fill="black" mask="url(#path-1-outside-1_73_28)"/>
<path d="M17 10H16V11H2V10H1V9H17V10Z" fill="#64CDFE"/>
<path d="M1 2L2 2L2 0.999999L16 1L16 2L17 2L17 3L1 3L1 2Z" fill="#64CDFE"/>
<rect x="1" y="3" width="16" height="2" fill="#FE7ABF"/>
<rect x="1" y="7" width="16" height="2" fill="#FE7ABF"/>
<rect x="1" y="5" width="16" height="2" fill="#FEFCFD"/>
</svg>
